{
  "asset": {
    "version": "2.0",
    "generator": "GraphicsPrograming debug asset"
  },
  "scene": 0,
  "scenes": [
    {
      "nodes": [0, 1, 2]
    }
  ],
  "nodes": [
    {
      "mesh": 0,
      "translation": [-0.85, 0.0, -0.2],
      "scale": [0.9, 0.9, 0.9]
    },
    {
      "mesh": 0,
      "translation": [0.0, 0.0, 0.2],
      "rotation": [0.0, 0.0, 0.38268343, 0.92387953],
      "scale": [0.9, 0.9, 0.9]
    },
    {
      "mesh": 0,
      "translation": [0.85, 0.0, -0.1],
      "scale": [0.9, 0.9, 0.9]
    }
  ],
  "meshes": [
    {
      "primitives": [
        {
          "attributes": {
            "POSITION": 0,
            "NORMAL": 1,
            "TEXCOORD_0": 2
          },
          "indices": 3,
          "material": 0,
          "mode": 4
        }
      ]
    }
  ],
  "materials": [
    {
      "pbrMetallicRoughness": {
        "baseColorFactor": [0.85, 1.0, 0.9, 1.0]
      }
    }
  ],
  "buffers": [
    {
      "uri": "data:application/octet-stream;base64,",
      "byteLength": 102
    }
  ],
  "bufferViews": [
    {
      "buffer": 0,
      "byteOffset": 0,
      "byteLength": 36
    },
    {
      "buffer": 0,
      "byteOffset": 36,
      "byteLength": 36
    },
    {
      "buffer": 0,
      "byteOffset": 72,
      "byteLength": 24
    },
    {
      "buffer": 0,
      "byteOffset": 96,
      "byteLength": 6
    }
  ],
  "accessors": [
    {
      "bufferView": 0,
      "componentType": 5126,
      "count": 3,
      "type": "VEC3",
      "min": [-0.6, -0.5, 0.0],
      "max": [0.6, 0.55, 0.0]
    },
    {
      "bufferView": 1,
      "componentType": 5126,
      "count": 3,
      "type": "VEC3"
    },
    {
      "bufferView": 2,
      "componentType": 5126,
      "count": 3,
      "type": "VEC2"
    },
    {
      "bufferView": 3,
      "componentType": 5123,
      "count": 3,
      "type": "SCALAR"
    }
  ]
}
